<?xml version="1.0" encoding="UTF-8"?>
<!DOCTYPE svg
PUBLIC "-//W3C//DTD SVG 1.1//EN"
       "http://www.w3.org/Graphics/SVG/1.1/DTD/svg11.dtd">
<svg viewBox="76 24 1012 776" width="936px" height="752px" xmlns="http://www.w3.org/2000/svg" version="1.1">
   <line x1="880" y1="160" x2="870" y2="160" style="stroke:#333;stroke-width:1;"/>
   <line x1="875" y1="313" x2="885" y2="313" style="stroke:#333;stroke-width:1;"/>
   <line x1="870" y1="160" x2="875" y2="313" style="stroke:#333;stroke-width:1;"/>
   <line x1="872.5" y1="160" x2="876.03553390593" y2="163.53553390593" style="stroke:#333;stroke-width:2;"/>
   <line x1="872.5" y1="160" x2="876.03553390593" y2="156.46446609407" style="stroke:#333;stroke-width:2;"/>
   <line x1="880" y1="313" x2="876.46446609407" y2="316.53553390593" style="stroke:#333;stroke-width:2;"/>
   <line x1="880" y1="313" x2="876.46446609407" y2="309.46446609407" style="stroke:#333;stroke-width:2;"/>
   <line x1="630" y1="169" x2="620" y2="169" style="stroke:#333;stroke-width:1;"/>
   <line x1="624" y1="321" x2="634" y2="321" style="stroke:#333;stroke-width:1;"/>
   <line x1="620" y1="169" x2="624" y2="321" style="stroke:#333;stroke-width:1;"/>
   <line x1="622.5" y1="169" x2="626.03553390593" y2="172.53553390593" style="stroke:#333;stroke-width:2;"/>
   <line x1="622.5" y1="169" x2="626.03553390593" y2="165.46446609407" style="stroke:#333;stroke-width:2;"/>
   <line x1="629" y1="321" x2="625.46446609407" y2="324.53553390593" style="stroke:#333;stroke-width:2;"/>
   <line x1="629" y1="321" x2="625.46446609407" y2="317.46446609407" style="stroke:#333;stroke-width:2;"/>
   <line x1="751" y1="189" x2="761" y2="189" style="stroke:#0bf;stroke-width:1;"/>
   <line x1="870" y1="80" x2="880" y2="80" style="stroke:#0bf;stroke-width:1;"/>
   <line x1="761" y1="189" x2="870" y2="80" style="stroke:#0bf;stroke-width:1;"/>
   <line x1="758.5" y1="189" x2="754.96446609407" y2="192.53553390593" style="stroke:#0bf;stroke-width:2;"/>
   <line x1="758.5" y1="189" x2="754.96446609407" y2="185.46446609407" style="stroke:#0bf;stroke-width:2;"/>
   <line x1="875" y1="80" x2="871.46446609407" y2="83.535533905933" style="stroke:#0bf;stroke-width:2;"/>
   <line x1="875" y1="80" x2="871.46446609407" y2="76.464466094067" style="stroke:#0bf;stroke-width:2;"/>
   <line x1="630" y1="109" x2="620" y2="109" style="stroke:#bbb;stroke-width:1;"/>
   <line x1="638" y1="570" x2="648" y2="570" style="stroke:#bbb;stroke-width:1;"/>
   <line x1="620" y1="109" x2="638" y2="570" style="stroke:#bbb;stroke-width:1;"/>
   <line x1="622.5" y1="109" x2="626.03553390593" y2="112.53553390593" style="stroke:#bbb;stroke-width:2;"/>
   <line x1="622.5" y1="109" x2="626.03553390593" y2="105.46446609407" style="stroke:#bbb;stroke-width:2;"/>
   <line x1="643" y1="570" x2="639.46446609407" y2="573.53553390593" style="stroke:#bbb;stroke-width:2;"/>
   <line x1="643" y1="570" x2="639.46446609407" y2="566.46446609407" style="stroke:#bbb;stroke-width:2;"/>
   <line x1="216" y1="422" x2="226" y2="422" style="stroke:#cb0;stroke-width:1;"/>
   <line x1="620" y1="69" x2="630" y2="69" style="stroke:#cb0;stroke-width:1;"/>
   <line x1="226" y1="422" x2="620" y2="69" style="stroke:#cb0;stroke-width:1;"/>
   <line x1="223.5" y1="422" x2="219.96446609407" y2="425.53553390593" style="stroke:#cb0;stroke-width:2;"/>
   <line x1="223.5" y1="422" x2="219.96446609407" y2="418.46446609407" style="stroke:#cb0;stroke-width:2;"/>
   <line x1="625" y1="69" x2="621.46446609407" y2="72.535533905933" style="stroke:#cb0;stroke-width:2;"/>
   <line x1="625" y1="69" x2="621.46446609407" y2="65.464466094067" style="stroke:#cb0;stroke-width:2;"/>
   <line x1="95" y1="482" x2="85" y2="482" style="stroke:#b0b;stroke-width:1;"/>
   <line x1="81" y1="77" x2="91" y2="77" style="stroke:#b0b;stroke-width:1;"/>
   <line x1="85" y1="482" x2="81" y2="77" style="stroke:#b0b;stroke-width:1;"/>
   <line x1="87.5" y1="482" x2="91.035533905933" y2="485.53553390593" style="stroke:#b0b;stroke-width:2;"/>
   <line x1="87.5" y1="482" x2="91.035533905933" y2="478.46446609407" style="stroke:#b0b;stroke-width:2;"/>
   <line x1="86" y1="77" x2="82.464466094067" y2="80.535533905933" style="stroke:#b0b;stroke-width:2;"/>
   <line x1="86" y1="77" x2="82.464466094067" y2="73.464466094067" style="stroke:#b0b;stroke-width:2;"/>
   <line x1="876" y1="518" x2="866" y2="518" style="stroke:#cb0;stroke-width:1;"/>
   <line x1="479" y1="334" x2="469" y2="334" style="stroke:#cb0;stroke-width:1;"/>
   <line x1="866" y1="518" x2="479" y2="334" style="stroke:#cb0;stroke-width:1;"/>
   <line x1="868.5" y1="518" x2="872.03553390593" y2="521.53553390593" style="stroke:#cb0;stroke-width:2;"/>
   <line x1="868.5" y1="518" x2="872.03553390593" y2="514.46446609407" style="stroke:#cb0;stroke-width:2;"/>
   <line x1="474" y1="334" x2="477.53553390593" y2="337.53553390593" style="stroke:#cb0;stroke-width:2;"/>
   <line x1="474" y1="334" x2="477.53553390593" y2="330.46446609407" style="stroke:#cb0;stroke-width:2;"/>
   <line x1="474" y1="711" x2="484" y2="711" style="stroke:#bbb;stroke-width:1;"/>
   <line x1="638" y1="570" x2="648" y2="570" style="stroke:#bbb;stroke-width:1;"/>
   <line x1="484" y1="711" x2="638" y2="570" style="stroke:#bbb;stroke-width:1;"/>
   <line x1="481.5" y1="711" x2="477.96446609407" y2="714.53553390593" style="stroke:#bbb;stroke-width:2;"/>
   <line x1="481.5" y1="711" x2="477.96446609407" y2="707.46446609407" style="stroke:#bbb;stroke-width:2;"/>
   <line x1="643" y1="570" x2="639.46446609407" y2="573.53553390593" style="stroke:#bbb;stroke-width:2;"/>
   <line x1="643" y1="570" x2="639.46446609407" y2="566.46446609407" style="stroke:#bbb;stroke-width:2;"/>
   <line x1="348" y1="374" x2="338" y2="374" style="stroke:#0bf;stroke-width:1;"/>
   <line x1="222" y1="77" x2="212" y2="77" style="stroke:#0bf;stroke-width:1;"/>
   <line x1="338" y1="374" x2="222" y2="77" style="stroke:#0bf;stroke-width:1;"/>
   <line x1="340.5" y1="374" x2="344.03553390593" y2="377.53553390593" style="stroke:#0bf;stroke-width:2;"/>
   <line x1="340.5" y1="374" x2="344.03553390593" y2="370.46446609407" style="stroke:#0bf;stroke-width:2;"/>
   <line x1="217" y1="77" x2="220.53553390593" y2="80.535533905933" style="stroke:#0bf;stroke-width:2;"/>
   <line x1="217" y1="77" x2="220.53553390593" y2="73.464466094067" style="stroke:#0bf;stroke-width:2;"/>
   <line x1="469" y1="394" x2="479" y2="394" style="stroke:#0bf;stroke-width:1;"/>
   <line x1="620" y1="69" x2="630" y2="69" style="stroke:#0bf;stroke-width:1;"/>
   <line x1="479" y1="394" x2="620" y2="69" style="stroke:#0bf;stroke-width:1;"/>
   <line x1="476.5" y1="394" x2="472.96446609407" y2="397.53553390593" style="stroke:#0bf;stroke-width:2;"/>
   <line x1="476.5" y1="394" x2="472.96446609407" y2="390.46446609407" style="stroke:#0bf;stroke-width:2;"/>
   <line x1="625" y1="69" x2="621.46446609407" y2="72.535533905933" style="stroke:#0bf;stroke-width:2;"/>
   <line x1="625" y1="69" x2="621.46446609407" y2="65.464466094067" style="stroke:#0bf;stroke-width:2;"/>
   <line x1="755" y1="441" x2="765" y2="441" style="stroke:#bbb;stroke-width:1;"/>
   <line x1="870" y1="80" x2="880" y2="80" style="stroke:#bbb;stroke-width:1;"/>
   <line x1="765" y1="441" x2="870" y2="80" style="stroke:#bbb;stroke-width:1;"/>
   <line x1="762.5" y1="441" x2="758.96446609407" y2="444.53553390593" style="stroke:#bbb;stroke-width:2;"/>
   <line x1="762.5" y1="441" x2="758.96446609407" y2="437.46446609407" style="stroke:#bbb;stroke-width:2;"/>
   <line x1="875" y1="80" x2="871.46446609407" y2="83.535533905933" style="stroke:#bbb;stroke-width:2;"/>
   <line x1="875" y1="80" x2="871.46446609407" y2="76.464466094067" style="stroke:#bbb;stroke-width:2;"/>
   <line x1="358" y1="117" x2="348" y2="117" style="stroke:#0b0;stroke-width:1;"/>
   <line x1="222" y1="77" x2="212" y2="77" style="stroke:#0b0;stroke-width:1;"/>
   <line x1="348" y1="117" x2="222" y2="77" style="stroke:#0b0;stroke-width:1;"/>
   <line x1="350.5" y1="117" x2="354.03553390593" y2="120.53553390593" style="stroke:#0b0;stroke-width:2;"/>
   <line x1="350.5" y1="117" x2="354.03553390593" y2="113.46446609407" style="stroke:#0b0;stroke-width:2;"/>
   <line x1="217" y1="77" x2="220.53553390593" y2="80.535533905933" style="stroke:#0b0;stroke-width:2;"/>
   <line x1="217" y1="77" x2="220.53553390593" y2="73.464466094067" style="stroke:#0b0;stroke-width:2;"/>
   <rect width="121" height="20" x="880" y="50" style="fill:#007;stroke:black;"/>
   <text width="121" height="20" x="885" y="64" style="fill:#fff;" font-family="Arial" font-size="16px"> beacon</text>
   <rect width="121" height="20" x="880" y="70" style="fill:#aea;stroke:black;"/>
   <text width="121" height="20" x="885" y="84" style="fill:black;" font-family="Arial" font-size="16px">id</text>
   <rect width="121" height="20" x="880" y="90" style="fill:none;stroke:black;"/>
   <text width="121" height="20" x="885" y="104" style="fill:black;" font-family="Arial" font-size="16px">uuid</text>
   <rect width="121" height="20" x="880" y="110" style="fill:none;stroke:black;"/>
   <text width="121" height="20" x="885" y="124" style="fill:black;" font-family="Arial" font-size="16px">major</text>
   <rect width="121" height="20" x="880" y="130" style="fill:none;stroke:black;"/>
   <text width="121" height="20" x="885" y="144" style="fill:black;" font-family="Arial" font-size="16px">minor</text>
   <rect width="121" height="20" x="880" y="150" style="fill:none;stroke:black;"/>
   <text width="121" height="20" x="885" y="164" style="fill:black;" font-family="Arial" font-size="16px">bean_id</text>
   <rect width="121" height="20" x="880" y="170" style="fill:none;stroke:black;"/>
   <text width="121" height="20" x="885" y="184" style="fill:black;" font-family="Arial" font-size="16px">created_at</text>
   <rect width="121" height="20" x="880" y="190" style="fill:none;stroke:black;"/>
   <text width="121" height="20" x="885" y="204" style="fill:black;" font-family="Arial" font-size="16px">updated_at</text>
   <rect width="121" height="20" x="885" y="283" style="fill:#007;stroke:black;"/>
   <text width="121" height="20" x="890" y="297" style="fill:#fff;" font-family="Arial" font-size="16px"> bean</text>
   <rect width="121" height="20" x="885" y="303" style="fill:#aea;stroke:black;"/>
   <text width="121" height="20" x="890" y="317" style="fill:black;" font-family="Arial" font-size="16px">id</text>
   <rect width="121" height="20" x="885" y="323" style="fill:none;stroke:black;"/>
   <text width="121" height="20" x="890" y="337" style="fill:black;" font-family="Arial" font-size="16px">address</text>
   <rect width="121" height="20" x="885" y="343" style="fill:none;stroke:black;"/>
   <text width="121" height="20" x="890" y="357" style="fill:black;" font-family="Arial" font-size="16px">name</text>
   <rect width="121" height="20" x="885" y="363" style="fill:none;stroke:black;"/>
   <text width="121" height="20" x="890" y="377" style="fill:black;" font-family="Arial" font-size="16px">created_at</text>
   <rect width="121" height="20" x="885" y="383" style="fill:none;stroke:black;"/>
   <text width="121" height="20" x="890" y="397" style="fill:black;" font-family="Arial" font-size="16px">updated_at</text>
   <rect width="121" height="20" x="630" y="39" style="fill:#007;stroke:black;"/>
   <text width="121" height="20" x="635" y="53" style="fill:#fff;" font-family="Arial" font-size="16px"> bicycle</text>
   <rect width="121" height="20" x="630" y="59" style="fill:#aea;stroke:black;"/>
   <text width="121" height="20" x="635" y="73" style="fill:black;" font-family="Arial" font-size="16px">id</text>
   <rect width="121" height="20" x="630" y="79" style="fill:none;stroke:black;"/>
   <text width="121" height="20" x="635" y="93" style="fill:black;" font-family="Arial" font-size="16px">serial</text>
   <rect width="121" height="20" x="630" y="99" style="fill:none;stroke:black;"/>
   <text width="121" height="20" x="635" y="113" style="fill:black;" font-family="Arial" font-size="16px">bicycle_type_id</text>
   <rect width="121" height="20" x="630" y="119" style="fill:none;stroke:black;"/>
   <text width="121" height="20" x="635" y="133" style="fill:black;" font-family="Arial" font-size="16px">desc</text>
   <rect width="121" height="20" x="630" y="139" style="fill:none;stroke:black;"/>
   <text width="121" height="20" x="635" y="153" style="fill:black;" font-family="Arial" font-size="16px">status</text>
   <rect width="121" height="20" x="630" y="159" style="fill:none;stroke:black;"/>
   <text width="121" height="20" x="635" y="173" style="fill:black;" font-family="Arial" font-size="16px">station_id</text>
   <rect width="121" height="20" x="630" y="179" style="fill:none;stroke:black;"/>
   <text width="121" height="20" x="635" y="193" style="fill:black;" font-family="Arial" font-size="16px">beacon_id</text>
   <rect width="121" height="20" x="630" y="199" style="fill:none;stroke:black;"/>
   <text width="121" height="20" x="635" y="213" style="fill:black;" font-family="Arial" font-size="16px">created_at</text>
   <rect width="121" height="20" x="630" y="219" style="fill:none;stroke:black;"/>
   <text width="121" height="20" x="635" y="233" style="fill:black;" font-family="Arial" font-size="16px">updated_at</text>
   <rect width="121" height="20" x="95" y="372" style="fill:#007;stroke:black;"/>
   <text width="121" height="20" x="100" y="386" style="fill:#fff;" font-family="Arial" font-size="16px"> bicycle_location</text>
   <rect width="121" height="20" x="95" y="392" style="fill:#aea;stroke:black;"/>
   <text width="121" height="20" x="100" y="406" style="fill:black;" font-family="Arial" font-size="16px">id</text>
   <rect width="121" height="20" x="95" y="412" style="fill:none;stroke:black;"/>
   <text width="121" height="20" x="100" y="426" style="fill:black;" font-family="Arial" font-size="16px">bicycle_id</text>
   <rect width="121" height="20" x="95" y="432" style="fill:none;stroke:black;"/>
   <text width="121" height="20" x="100" y="446" style="fill:black;" font-family="Arial" font-size="16px">latitude</text>
   <rect width="121" height="20" x="95" y="452" style="fill:none;stroke:black;"/>
   <text width="121" height="20" x="100" y="466" style="fill:black;" font-family="Arial" font-size="16px">longitude</text>
   <rect width="121" height="20" x="95" y="472" style="fill:none;stroke:black;"/>
   <text width="121" height="20" x="100" y="486" style="fill:black;" font-family="Arial" font-size="16px">user_id</text>
   <rect width="121" height="20" x="95" y="492" style="fill:none;stroke:black;"/>
   <text width="121" height="20" x="100" y="506" style="fill:black;" font-family="Arial" font-size="16px">created_at</text>
   <rect width="121" height="20" x="95" y="512" style="fill:none;stroke:black;"/>
   <text width="121" height="20" x="100" y="526" style="fill:black;" font-family="Arial" font-size="16px">updated_at</text>
   <rect width="121" height="20" x="648" y="540" style="fill:#007;stroke:black;"/>
   <text width="121" height="20" x="653" y="554" style="fill:#fff;" font-family="Arial" font-size="16px"> bicycle_type</text>
   <rect width="121" height="20" x="648" y="560" style="fill:#aea;stroke:black;"/>
   <text width="121" height="20" x="653" y="574" style="fill:black;" font-family="Arial" font-size="16px">id</text>
   <rect width="121" height="20" x="648" y="580" style="fill:none;stroke:black;"/>
   <text width="121" height="20" x="653" y="594" style="fill:black;" font-family="Arial" font-size="16px">brand</text>
   <rect width="121" height="20" x="648" y="600" style="fill:none;stroke:black;"/>
   <text width="121" height="20" x="653" y="614" style="fill:black;" font-family="Arial" font-size="16px">model</text>
   <rect width="121" height="20" x="648" y="620" style="fill:none;stroke:black;"/>
   <text width="121" height="20" x="653" y="634" style="fill:black;" font-family="Arial" font-size="16px">desc</text>
   <rect width="121" height="20" x="648" y="640" style="fill:none;stroke:black;"/>
   <text width="121" height="20" x="653" y="654" style="fill:black;" font-family="Arial" font-size="16px">created_at</text>
   <rect width="121" height="20" x="648" y="660" style="fill:none;stroke:black;"/>
   <text width="121" height="20" x="653" y="674" style="fill:black;" font-family="Arial" font-size="16px">updated_at</text>
   <rect width="121" height="20" x="874" y="678" style="fill:#007;stroke:black;"/>
   <text width="121" height="20" x="879" y="692" style="fill:#fff;" font-family="Arial" font-size="16px"> fcm_token</text>
   <rect width="121" height="20" x="874" y="698" style="fill:#aea;stroke:black;"/>
   <text width="121" height="20" x="879" y="712" style="fill:black;" font-family="Arial" font-size="16px">id</text>
   <rect width="121" height="20" x="874" y="718" style="fill:none;stroke:black;"/>
   <text width="121" height="20" x="879" y="732" style="fill:black;" font-family="Arial" font-size="16px">mac_address</text>
   <rect width="121" height="20" x="874" y="738" style="fill:none;stroke:black;"/>
   <text width="121" height="20" x="879" y="752" style="fill:black;" font-family="Arial" font-size="16px">fcm_token</text>
   <rect width="121" height="20" x="876" y="468" style="fill:#007;stroke:black;"/>
   <text width="121" height="20" x="881" y="482" style="fill:#fff;" font-family="Arial" font-size="16px"> feedback</text>
   <rect width="121" height="20" x="876" y="488" style="fill:#aea;stroke:black;"/>
   <text width="121" height="20" x="881" y="502" style="fill:black;" font-family="Arial" font-size="16px">id</text>
   <rect width="121" height="20" x="876" y="508" style="fill:none;stroke:black;"/>
   <text width="121" height="20" x="881" y="522" style="fill:black;" font-family="Arial" font-size="16px">rental_id</text>
   <rect width="121" height="20" x="876" y="528" style="fill:none;stroke:black;"/>
   <text width="121" height="20" x="881" y="542" style="fill:black;" font-family="Arial" font-size="16px">issue</text>
   <rect width="121" height="20" x="876" y="548" style="fill:none;stroke:black;"/>
   <text width="121" height="20" x="881" y="562" style="fill:black;" font-family="Arial" font-size="16px">comment</text>
   <rect width="121" height="20" x="876" y="568" style="fill:none;stroke:black;"/>
   <text width="121" height="20" x="881" y="582" style="fill:black;" font-family="Arial" font-size="16px">rating</text>
   <rect width="121" height="20" x="876" y="588" style="fill:none;stroke:black;"/>
   <text width="121" height="20" x="881" y="602" style="fill:black;" font-family="Arial" font-size="16px">created_at</text>
   <rect width="121" height="20" x="876" y="608" style="fill:none;stroke:black;"/>
   <text width="121" height="20" x="881" y="622" style="fill:black;" font-family="Arial" font-size="16px">updated_at</text>
   <rect width="121" height="20" x="353" y="621" style="fill:#007;stroke:black;"/>
   <text width="121" height="20" x="358" y="635" style="fill:#fff;" font-family="Arial" font-size="16px"> image</text>
   <rect width="121" height="20" x="353" y="641" style="fill:#aea;stroke:black;"/>
   <text width="121" height="20" x="358" y="655" style="fill:black;" font-family="Arial" font-size="16px">id</text>
   <rect width="121" height="20" x="353" y="661" style="fill:none;stroke:black;"/>
   <text width="121" height="20" x="358" y="675" style="fill:black;" font-family="Arial" font-size="16px">name</text>
   <rect width="121" height="20" x="353" y="681" style="fill:none;stroke:black;"/>
   <text width="121" height="20" x="358" y="695" style="fill:black;" font-family="Arial" font-size="16px">data</text>
   <rect width="121" height="20" x="353" y="701" style="fill:none;stroke:black;"/>
   <text width="121" height="20" x="358" y="715" style="fill:black;" font-family="Arial" font-size="16px">bicycle_type_id</text>
   <rect width="121" height="20" x="353" y="721" style="fill:none;stroke:black;"/>
   <text width="121" height="20" x="358" y="735" style="fill:black;" font-family="Arial" font-size="16px">created_at</text>
   <rect width="121" height="20" x="353" y="741" style="fill:none;stroke:black;"/>
   <text width="121" height="20" x="358" y="755" style="fill:black;" font-family="Arial" font-size="16px">updated_at</text>
   <rect width="121" height="20" x="348" y="304" style="fill:#007;stroke:black;"/>
   <text width="121" height="20" x="353" y="318" style="fill:#fff;" font-family="Arial" font-size="16px"> rental</text>
   <rect width="121" height="20" x="348" y="324" style="fill:#aea;stroke:black;"/>
   <text width="121" height="20" x="353" y="338" style="fill:black;" font-family="Arial" font-size="16px">id</text>
   <rect width="121" height="20" x="348" y="344" style="fill:none;stroke:black;"/>
   <text width="121" height="20" x="353" y="358" style="fill:black;" font-family="Arial" font-size="16px">booking_id</text>
   <rect width="121" height="20" x="348" y="364" style="fill:none;stroke:black;"/>
   <text width="121" height="20" x="353" y="378" style="fill:black;" font-family="Arial" font-size="16px">user_id</text>
   <rect width="121" height="20" x="348" y="384" style="fill:none;stroke:black;"/>
   <text width="121" height="20" x="353" y="398" style="fill:black;" font-family="Arial" font-size="16px">bicycle_id</text>
   <rect width="121" height="20" x="348" y="404" style="fill:none;stroke:black;"/>
   <text width="121" height="20" x="353" y="418" style="fill:black;" font-family="Arial" font-size="16px">serial</text>
   <rect width="121" height="20" x="348" y="424" style="fill:none;stroke:black;"/>
   <text width="121" height="20" x="353" y="438" style="fill:black;" font-family="Arial" font-size="16px">book_at</text>
   <rect width="121" height="20" x="348" y="444" style="fill:none;stroke:black;"/>
   <text width="121" height="20" x="353" y="458" style="fill:black;" font-family="Arial" font-size="16px">pickup_at</text>
   <rect width="121" height="20" x="348" y="464" style="fill:none;stroke:black;"/>
   <text width="121" height="20" x="353" y="478" style="fill:black;" font-family="Arial" font-size="16px">return_at</text>
   <rect width="121" height="20" x="348" y="484" style="fill:none;stroke:black;"/>
   <text width="121" height="20" x="353" y="498" style="fill:black;" font-family="Arial" font-size="16px">return_station_id</text>
   <rect width="121" height="20" x="348" y="504" style="fill:none;stroke:black;"/>
   <text width="121" height="20" x="353" y="518" style="fill:black;" font-family="Arial" font-size="16px">duration</text>
   <rect width="121" height="20" x="348" y="524" style="fill:none;stroke:black;"/>
   <text width="121" height="20" x="353" y="538" style="fill:black;" font-family="Arial" font-size="16px">created_at</text>
   <rect width="121" height="20" x="348" y="544" style="fill:none;stroke:black;"/>
   <text width="121" height="20" x="353" y="558" style="fill:black;" font-family="Arial" font-size="16px">updated_at</text>
   <rect width="121" height="20" x="634" y="291" style="fill:#007;stroke:black;"/>
   <text width="121" height="20" x="639" y="305" style="fill:#fff;" font-family="Arial" font-size="16px"> station</text>
   <rect width="121" height="20" x="634" y="311" style="fill:#aea;stroke:black;"/>
   <text width="121" height="20" x="639" y="325" style="fill:black;" font-family="Arial" font-size="16px">id</text>
   <rect width="121" height="20" x="634" y="331" style="fill:none;stroke:black;"/>
   <text width="121" height="20" x="639" y="345" style="fill:black;" font-family="Arial" font-size="16px">name</text>
   <rect width="121" height="20" x="634" y="351" style="fill:none;stroke:black;"/>
   <text width="121" height="20" x="639" y="365" style="fill:black;" font-family="Arial" font-size="16px">address</text>
   <rect width="121" height="20" x="634" y="371" style="fill:none;stroke:black;"/>
   <text width="121" height="20" x="639" y="385" style="fill:black;" font-family="Arial" font-size="16px">postal</text>
   <rect width="121" height="20" x="634" y="391" style="fill:none;stroke:black;"/>
   <text width="121" height="20" x="639" y="405" style="fill:black;" font-family="Arial" font-size="16px">latitude</text>
   <rect width="121" height="20" x="634" y="411" style="fill:none;stroke:black;"/>
   <text width="121" height="20" x="639" y="425" style="fill:black;" font-family="Arial" font-size="16px">longitude</text>
   <rect width="121" height="20" x="634" y="431" style="fill:none;stroke:black;"/>
   <text width="121" height="20" x="639" y="445" style="fill:black;" font-family="Arial" font-size="16px">beacon_id</text>
   <rect width="121" height="20" x="634" y="451" style="fill:none;stroke:black;"/>
   <text width="121" height="20" x="639" y="465" style="fill:black;" font-family="Arial" font-size="16px">bicycle_count</text>
   <rect width="121" height="20" x="634" y="471" style="fill:none;stroke:black;"/>
   <text width="121" height="20" x="639" y="485" style="fill:black;" font-family="Arial" font-size="16px">created_at</text>
   <rect width="121" height="20" x="634" y="491" style="fill:none;stroke:black;"/>
   <text width="121" height="20" x="639" y="505" style="fill:black;" font-family="Arial" font-size="16px">updated_at</text>
   <rect width="121" height="20" x="91" y="47" style="fill:#007;stroke:black;"/>
   <text width="121" height="20" x="96" y="61" style="fill:#fff;" font-family="Arial" font-size="16px"> user</text>
   <rect width="121" height="20" x="91" y="67" style="fill:#aea;stroke:black;"/>
   <text width="121" height="20" x="96" y="81" style="fill:black;" font-family="Arial" font-size="16px">id</text>
   <rect width="121" height="20" x="91" y="87" style="fill:none;stroke:black;"/>
   <text width="121" height="20" x="96" y="101" style="fill:black;" font-family="Arial" font-size="16px">fullname</text>
   <rect width="121" height="20" x="91" y="107" style="fill:none;stroke:black;"/>
   <text width="121" height="20" x="96" y="121" style="fill:black;" font-family="Arial" font-size="16px">auth_key</text>
   <rect width="121" height="20" x="91" y="127" style="fill:none;stroke:black;"/>
   <text width="121" height="20" x="96" y="141" style="fill:black;" font-family="Arial" font-size="16px">password_hash</text>
   <rect width="121" height="20" x="91" y="147" style="fill:none;stroke:black;"/>
   <text width="121" height="20" x="96" y="161" style="fill:black;" font-family="Arial" font-size="16px">email</text>
   <rect width="121" height="20" x="91" y="167" style="fill:none;stroke:black;"/>
   <text width="121" height="20" x="96" y="181" style="fill:black;" font-family="Arial" font-size="16px">mobile</text>
   <rect width="121" height="20" x="91" y="187" style="fill:none;stroke:black;"/>
   <text width="121" height="20" x="96" y="201" style="fill:black;" font-family="Arial" font-size="16px">status</text>
   <rect width="121" height="20" x="91" y="207" style="fill:none;stroke:black;"/>
   <text width="121" height="20" x="96" y="221" style="fill:black;" font-family="Arial" font-size="16px">role</text>
   <rect width="121" height="20" x="91" y="227" style="fill:none;stroke:black;"/>
   <text width="121" height="20" x="96" y="241" style="fill:black;" font-family="Arial" font-size="16px">name</text>
   <rect width="121" height="20" x="91" y="247" style="fill:none;stroke:black;"/>
   <text width="121" height="20" x="96" y="261" style="fill:black;" font-family="Arial" font-size="16px">created_at</text>
   <rect width="121" height="20" x="91" y="267" style="fill:none;stroke:black;"/>
   <text width="121" height="20" x="96" y="281" style="fill:black;" font-family="Arial" font-size="16px">updated_at</text>
   <rect width="121" height="20" x="358" y="67" style="fill:#007;stroke:black;"/>
   <text width="121" height="20" x="363" y="81" style="fill:#fff;" font-family="Arial" font-size="16px"> user_token</text>
   <rect width="121" height="20" x="358" y="87" style="fill:#aea;stroke:black;"/>
   <text width="121" height="20" x="363" y="101" style="fill:black;" font-family="Arial" font-size="16px">id</text>
   <rect width="121" height="20" x="358" y="107" style="fill:none;stroke:black;"/>
   <text width="121" height="20" x="363" y="121" style="fill:black;" font-family="Arial" font-size="16px">user_id</text>
   <rect width="121" height="20" x="358" y="127" style="fill:none;stroke:black;"/>
   <text width="121" height="20" x="363" y="141" style="fill:black;" font-family="Arial" font-size="16px">token</text>
   <rect width="121" height="20" x="358" y="147" style="fill:none;stroke:black;"/>
   <text width="121" height="20" x="363" y="161" style="fill:black;" font-family="Arial" font-size="16px">title</text>
   <rect width="121" height="20" x="358" y="167" style="fill:none;stroke:black;"/>
   <text width="121" height="20" x="363" y="181" style="fill:black;" font-family="Arial" font-size="16px">ip_address</text>
   <rect width="121" height="20" x="358" y="187" style="fill:none;stroke:black;"/>
   <text width="121" height="20" x="363" y="201" style="fill:black;" font-family="Arial" font-size="16px">expire_date</text>
   <rect width="121" height="20" x="358" y="207" style="fill:none;stroke:black;"/>
   <text width="121" height="20" x="363" y="221" style="fill:black;" font-family="Arial" font-size="16px">created_date</text>
   <rect width="121" height="20" x="358" y="227" style="fill:none;stroke:black;"/>
   <text width="121" height="20" x="363" y="241" style="fill:black;" font-family="Arial" font-size="16px">updated_date</text>
   <rect width="121" height="20" x="358" y="247" style="fill:none;stroke:black;"/>
   <text width="121" height="20" x="363" y="261" style="fill:black;" font-family="Arial" font-size="16px">action</text>
</svg>
